#!OML:ASF F:\VICON\USERDATA\INSTALL\rory3\rory3.ASF
:FULLY-SPECIFIED
:DEGREES
657
root 2.87297 15.7432 -1.33419 -9.39022 -31.5383 -4.89091
lowerback 10.0537 3.16123 -4.14164
upperback 3.67489 3.63827 -3.51906
thorax -1.82601 1.7812 -1.74261
lowerneck -7.50231 5.65764 -3.4521
upperneck 16.7055 6.20269 12.0664
head 5.7371 3.70259 4.82101
rclavicle -9.51185e-014 1.06549e-013
rhumerus 38.1474 15.9602 -88.4342
rradius 111.328
rwrist -43.7562
rhand -25.914 10.7581
rfingers 7.12502
rthumb 0.628759 -19.2208
lclavicle -9.51185e-014 1.06549e-013
lhumerus 38.4328 -26.9171 82.7319
lradius 109.3
lwrist 59.4092
lhand -13.7964 15.8418
lfingers 7.12502
lthumb 12.3254 45.4585
rfemur -11.2254 10.9045 15.1283
rtibia 83.0226
rfoot 2.02123 -7.53904
rtoes -18.1008
lfemur -32.068 8.05204 -8.86135
ltibia 75.4006
lfoot -26.3047 4.35998
ltoes -8.23039
658
root 2.90567 15.902 -1.33565 -9.2142 -32.3285 -5.00778
lowerback 9.99788 2.98744 -4.64723
upperback 3.72373 3.39202 -2.67031
thorax -1.82461 1.65295 -0.549068
lowerneck -7.71072 5.90642 -3.87278
upperneck 16.8783 6.69638 11.4171
head 5.7947 3.87459 4.72377
rclavicle -3.35946e-014 -4.77083e-015
rhumerus 38.1329 15.9211 -87.5551
rradius 111.408
rwrist -43.2885
rhand -25.9062 10.3195
rfingers 7.12502
rthumb 0.636374 -19.6593
lclavicle -3.35946e-014 -4.77083e-015
lhumerus 38.5994 -26.5954 83.084
lradius 109.369
lwrist 59.9948
lhand -14.0609 16.2994
lfingers 7.12502
lthumb 12.0704 45.9312
rfemur -11.3989 10.8312 15.0893
rtibia 81.9819
rfoot 3.2748 -8.49533
rtoes -17.5635
lfemur -30.9004 8.33815 -8.62672
ltibia 73.5839
lfoot -25.7391 3.46337
ltoes -6.80421
659
root 2.93693 16.0592 -1.342 -8.94636 -32.9936 -5.06299
lowerback 9.93088 2.75849 -5.37405
upperback 3.74648 3.0542 -1.73532
thorax -1.84163 1.47853 0.865845
lowerneck -7.9419 6.15934 -4.51463
upperneck 16.999 7.24548 10.723
head 5.82991 4.05442 4.6503
rclavicle -7.72775e-014 2.54444e-014
rhumerus 38.1697 16.0743 -86.4882
rradius 111.533
rwrist -43.0368
rhand -25.8417 10.1074
rfingers 7.12502
rthumb 0.698635 -19.8712
lclavicle -7.72775e-014 2.54444e-014
lhumerus 38.3071 -26.2987 83.8676
lradius 109.2
lwrist 59.6837
lhand -13.9728 16.4931
lfingers 7.12502
lthumb 12.1553 46.1199
rfemur -11.6441 10.6478 14.9509
rtibia 80.9597
rfoot 4.27256 -9.14485
rtoes -16.8097
lfemur -29.9273 8.51903 -8.44378
ltibia 71.8087
lfoot -25.1107 2.42929
ltoes -6.12427
660
root 2.96743 16.217 -1.35681 -8.44373 -33.5889 -5.2909
lowerback 9.89899 2.54415 -5.92204
upperback 3.81586 2.74904 -0.873163
thorax -1.79945 1.31917 2.10392
lowerneck -8.48358 6.33648 -5.15369
upperneck 17.0565 7.68045 10.2192
head 5.90173 4.198 4.64275
rclavicle 9.44227e-015 -5.40694e-014
rhumerus 38.3766 16.0448 -85.454
rradius 111.702
rwrist -42.8459
rhand -25.7561 9.18427
rfingers 7.12502
rthumb 0.781264 -20.794
lclavicle 9.44227e-015 -5.40694e-014
lhumerus 37.9878 -26.3299 84.6145
lradius 108.897
lwrist 58.6982
lhand -13.619 16.4705
lfingers 7.12502
lthumb 12.4965 46.0769
rfemur -12.0809 10.3906 15.0056
rtibia 79.9961
rfoot 4.80689 -9.77454
rtoes -16.4309
lfemur -29.249 8.59049 -8.04954
ltibia 70.1482
lfoot -24.3149 1.31677
ltoes -6.80644
661
root 2.99749 16.3757 -1.37063 -8.05544 -34.1511 -5.39164
lowerback 9.88446 2.49355 -6.30939
upperback 3.84582 2.66695 -0.20388
thorax -1.79977 1.27358 3.02683
lowerneck -8.58284 6.36731 -5.60278
upperneck 16.8751 7.86832 9.82584
head 5.84578 4.23251 4.59659
rclavicle -3.44891e-014 2.22639e-014
rhumerus 38.318 15.6541 -84.4679
rradius 111.828
rwrist -42.4323
rhand -25.7976 8.33034
rfingers 7.12502
rthumb 0.741206 -21.6481
lclavicle -3.44891e-014 2.22639e-014
lhumerus 37.3754 -26.9872 85.482
lradius 108.717
lwrist 58.1139
lhand -13.3146 16.082
lfingers 7.12502
lthumb 12.7899 45.6702
rfemur -12.3843 10.044 14.944
rtibia 79.0724
rfoot 4.65098 -10.0328
rtoes -16.4044
lfemur -28.5134 8.54702 -7.69999
ltibia 68.5951
lfoot -23.5874 -0.0704097
ltoes -8.52458
662
root 3.03046 16.5177 -1.38273 -7.52415 -34.6866 -5.67159
lowerback 9.80394 2.35587 -6.49663
upperback 3.9103 2.49307 0.450511
thorax -1.7055 1.17946 3.83962
lowerneck -8.95557 6.43924 -5.71291
upperneck 16.8618 8.11152 9.14278
head 5.91615 4.29548 4.42834
rclavicle -1.65488e-014 2.46493e-014
rhumerus 38.4484 15.4743 -83.4919
rradius 111.857
rwrist -41.8642
rhand -26.1377 8.00038
rfingers 7.12502
rthumb 0.412743 -21.979
lclavicle -1.65488e-014 2.46493e-014
lhumerus 37.067 -27.3814 85.9622
lradius 108.62
lwrist 58.0016
lhand -12.7584 15.5629
lfingers 7.12502
lthumb 13.326 45.1168
rfemur -12.6629 9.61121 15.046
rtibia 78.2434
rfoot 3.73187 -9.7644
rtoes -16.2392
lfemur -27.8857 8.34942 -7.10731
ltibia 67.222
lfoot -22.9769 -2.12055
ltoes -9.41327
663
root 3.0686 16.6361 -1.39795 -6.76561 -35.1804 -6.21244
lowerback 9.7447 2.20544 -6.27276
upperback 4.01713 2.33331 0.966613
thorax -1.55609 1.09154 4.27644
lowerneck -9.82463 6.50008 -5.34461
upperneck 17.042 8.2939 8.3749
head 6.16634 4.35497 4.18689
rclavicle -5.1684e-015 1.19271e-014
rhumerus 38.8126 14.9155 -82.6002
rradius 111.828
rwrist -41.2829
rhand -26.2266 8.16791
rfingers 7.12502
rthumb 0.326934 -21.8116
lclavicle -5.1684e-015 1.19271e-014
lhumerus 37.4557 -27.8304 85.7878
lradius 108.622
lwrist 57.647
lhand -12.526 15.6499
lfingers 7.12502
lthumb 13.5501 45.189
rfemur -13.0399 9.14251 15.402
rtibia 77.4957
rfoot 2.18537 -9.31685
rtoes -16.9419
lfemur -27.4845 8.00097 -6.24973
ltibia 66.101
lfoot -22.3131 -4.35633
ltoes -10.693
664
root 3.10638 16.7437 -1.41293 -6.15662 -35.6044 -6.54189
lowerback 9.75834 2.18745 -6.08858
upperback 4.10673 2.33443 1.33264
thorax -1.47854 1.08643 4.55703
lowerneck -10.5203 6.47362 -4.96899
upperneck 17.0448 8.31269 7.84139
head 6.33195 4.35115 3.99338
rclavicle 2.74323e-014 8.74653e-015
rhumerus 38.9361 13.9539 -81.7119
rradius 111.886
rwrist -40.772
rhand -26.2007 9.26852
rfingers 7.12502
rthumb 0.351874 -20.7109
lclavicle 2.74323e-014 8.74653e-015
lhumerus 37.8429 -28.7134 85.7455
lradius 108.602
lwrist 57.2617
lhand -12.9407 16.1481
lfingers 7.12502
lthumb 13.1504 45.7134
rfemur -13.2909 8.65566 15.5502
rtibia 76.7482
rfoot 0.0405609 -8.75827
rtoes -18.9981
lfemur -27.1504 7.53178 -5.60077
ltibia 65.267
lfoot -21.5857 -6.44096
ltoes -13.5968
665
root 3.14701 16.8477 -1.42708 -5.78549 -35.8908 -6.27732
lowerback 9.69931 2.04189 -6.57364
upperback 4.05587 2.11163 1.78811
thorax -1.50093 0.97148 5.33901
lowerneck -10.6753 6.57003 -5.13537
upperneck 16.8673 8.57286 7.33464
head 6.30328 4.42688 3.87634
rclavicle -5.79954e-014 2.3059e-014
rhumerus 38.8408 13.6668 -80.6957
rradius 111.891
rwrist -40.4226
rhand -26.2403 10.236
rfingers 7.12502
rthumb 0.313628 -19.7435
lclavicle -5.79954e-014 2.3059e-014
lhumerus 37.6019 -29.0806 86.2392
lradius 108.616
lwrist 57.0108
lhand -13.6852 16.5677
lfingers 7.12502
lthumb 12.4326 46.178
rfemur -13.5958 7.99593 15.0341
rtibia 75.981
rfoot -2.33638 -7.28648
rtoes -17.6684
lfemur -27.0259 6.88311 -5.5883
ltibia 64.7579
lfoot -21.1524 -8.26038
ltoes -18.93
666
root 3.19413 16.9436 -1.43729 -5.67612 -36.1012 -5.37995
lowerback 9.2659 1.83289 -6.8613
upperback 4.20027 1.83837 1.64425
thorax -1.07522 0.813256 5.39375
lowerneck -11.1363 6.67463 -5.08093
upperneck 16.5486 8.76357 7.16514
head 6.28112 4.51662 3.83546
rclavicle 6.16232e-014 -9.54166e-015
rhumerus 38.9854 13.2456 -80.2971
rradius 111.885
rwrist -39.766
rhand -26.1586 10.5823
rfingers 7.12502
rthumb 0.392544 -19.3971
lclavicle 6.16232e-014 -9.54166e-015
lhumerus 37.8836 -29.5303 85.825
lradius 108.561
lwrist 56.8426
lhand -14.1749 16.5348
lfingers 7.12502
lthumb 11.9605 46.1731
rfemur -14.0185 7.25225 13.8381
rtibia 75.1897
rfoot -4.61873 -4.81957
rtoes -16.7185
lfemur -27.1076 6.12243 -6.26533
ltibia 64.6114
lfoot -21.0513 -9.43778
ltoes -24.9156
667
root 3.23802 17.0217 -1.44366 -5.57162 -36.4708 -4.73085
lowerback 9.0626 1.77611 -7.01569
upperback 4.31088 1.76489 1.57576
thorax -0.838375 0.762581 5.42273
lowerneck -11.8226 6.71886 -4.82599
upperneck 16.5308 8.8406 6.96279
head 6.41243 4.55875 3.76922
rclavicle 2.79292e-014 7.95139e-016
rhumerus 39.1291 12.6698 -79.8316
rradius 111.974
rwrist -39.0148
rhand -26.0036 10.4988
rfingers 7.12502
rthumb 0.542257 -19.4803
lclavicle 2.79292e-014 7.95139e-016
lhumerus 38.079 -30.159 85.5476
lradius 108.424
lwrist 56.2392
lhand -14.5497 16.4115
lfingers 7.12502
lthumb 11.5991 46.0705
rfemur -14.2801 6.73659 12.958
rtibia 74.3838
rfoot -6.72568 -2.20426
rtoes -16.2772
lfemur -27.093 5.6241 -6.70791
ltibia 64.8918
lfoot -20.5198 -9.96183
ltoes -27.5278
668
root 3.2763 17.0803 -1.45557 -5.39394 -37.0195 -4.54972
lowerback 9.11162 1.71976 -6.96144
upperback 4.32387 1.69283 1.74424
thorax -0.844653 0.725213 5.5766
lowerneck -12.1134 6.78479 -4.71032
upperneck 16.5435 8.96775 6.68359
head 6.47934 4.60488 3.68664
rclavicle 2.84262e-014 -2.10712e-014
rhumerus 39.1496 12.4319 -79.2911
rradius 112.105
rwrist -38.4354
rhand -25.9478 10.0506
rfingers 7.12502
rthumb 0.596177 -19.9283
lclavicle 2.84262e-014 -2.10712e-014
lhumerus 37.8785 -30.6421 85.6437
lradius 108.243
lwrist 55.1642
lhand -14.6655 16.5588
lfingers 7.12502
lthumb 11.4873 46.224
rfemur -14.3704 6.4354 12.6363
rtibia 73.6611
rfoot -8.62765 0.153767
rtoes -16.347
lfemur -26.9158 5.34817 -6.68869
ltibia 65.6016
lfoot -20.0523 -9.44502
ltoes -26.4926
669
root 3.31526 17.1256 -1.47072 -5.19301 -37.6309 -4.42533
lowerback 9.14993 1.66567 -6.831
upperback 4.30125 1.63077 1.9284
thorax -0.882496 0.696079 5.70258
lowerneck -12.1973 6.85318 -4.73623
upperneck 16.4647 9.09935 6.51782
head 6.46828 4.65388 3.64858
rclavicle -5.54112e-014 5.96354e-015
rhumerus 39.0246 12.2884 -78.809
rradius 112.356
rwrist -38.095
rhand -25.7584 9.02019
rfingers 7.12502
rthumb 0.779043 -20.9581
lclavicle -5.54112e-014 5.96354e-015
lhumerus 37.5937 -30.9682 85.8164
lradius 107.981
lwrist 54.349
lhand -14.7294 16.5111
lfingers 7.12502
lthumb 11.4257 46.1798
rfemur -14.4842 6.27787 12.4661
rtibia 73.0834
rfoot -10.252 2.21042
rtoes -17.6106
lfemur -26.8177 5.17127 -6.64909
ltibia 66.7458
lfoot -20.4488 -7.84501
ltoes -26.8021
670
root 3.35306 17.1618 -1.48197 -5.11755 -38.3233 -4.19785
lowerback 9.15405 1.66207 -6.81298
upperback 4.36749 1.62938 2.10977
thorax -0.819447 0.688883 5.88508
lowerneck -12.3752 6.89687 -4.81364
upperneck 16.315 9.2076 6.38207
head 6.44828 4.69313 3.628
rclavicle 5.29264e-014 -1.78906e-014
rhumerus 39.097 12.0753 -78.2018
rradius 112.543
rwrist -38.0848
rhand -25.5964 8.34172
rfingers 7.12502
rthumb 0.935554 -21.636
lclavicle 5.29264e-014 -1.78906e-014
lhumerus 37.4341 -31.0573 85.8901
lradius 107.79
lwrist 54.0498
lhand -14.9548 16.3514
lfingers 7.12502
lthumb 11.2083 46.032
rfemur -14.5426 6.24566 12.285
rtibia 72.6701
rfoot -11.6321 3.8097
rtoes -19.4102
lfemur -26.6538 5.19145 -6.7281
ltibia 68.1919
lfoot -20.6751 -6.59446
ltoes -26.3161
671
root 3.38677 17.19 -1.48905 -5.18767 -39.134 -3.82773
lowerback 9.19338 1.73255 -6.95452
upperback 4.41338 1.71055 2.29183
thorax -0.812874 0.723759 6.15036
lowerneck -12.303 6.92262 -4.90907
upperneck 16.0032 9.29875 6.17462
head 6.33778 4.71748 3.56786
rclavicle 3.08862e-014 -2.32578e-014
rhumerus 39.1004 11.9241 -77.3238
rradius 112.5
rwrist -38.2024
rhand -25.8572 9.27641
rfingers 7.12502
rthumb 0.683682 -20.7022
lclavicle 3.08862e-014 -2.32578e-014
lhumerus 37.0709 -31.1324 86.0704
lradius 107.765
lwrist 53.797
lhand -15.1204 16.4037
lfingers 7.12502
lthumb 11.0486 46.0929
rfemur -14.5851 6.34989 12.0523
rtibia 72.4426
rfoot -12.8313 4.76681
rtoes -21.2593
lfemur -26.3924 5.43646 -6.98286
ltibia 69.7411
lfoot -20.4819 -5.57558
ltoes -24.5718
